<svg xmlns="http://www.w3.org/2000/svg" width="613.479" height="1301.374" viewBox="0 0 613.479 1301.374"><defs><style>.a{fill:#3a0264;}.b{fill:#60e1e0;}</style></defs><g transform="translate(94.371 307.108)"><path class="a" d="M-25.912,196.113c52.109-67.815,85,75.071,166.1,80.921,85.585,6.173,245.367-128.024,300.258-80.921C547.447,287.932,538.112,466.778,428,557S107,648.819,0,557-132.912,335.363-25.912,196.113Z" transform="translate(0 369)"/><path class="b" d="M-25.912,196.113C26.2,128.3,87.85,270.473,168.948,276.322c43.477,3.136,7.1,86.7,63.028,105.785,54.031,18.44,87.88,88.943,114.886,112.118C453.862,586.044,538.112,466.778,428,557S107,648.819,0,557-132.912,335.363-25.912,196.113Z" transform="translate(424.737 318.159) rotate(180)"/></g></svg>