<svg xmlns="http://www.w3.org/2000/svg" xmlns:xlink="http://www.w3.org/1999/xlink" width="168" height="168" viewBox="0 0 168 168">
  <defs>
    <clipPath id="clip-path">
      <circle id="Ellipse_13" data-name="Ellipse 13" cx="84" cy="84" r="84" transform="translate(-0.099 -0.099)" fill="#ffd44b"/>
    </clipPath>
  </defs>
  <g id="Mask_Group_1" data-name="Mask Group 1" transform="translate(0.099 0.099)" clip-path="url(#clip-path)">
    <g id="Character_Design" transform="translate(-22.997 6.712)">
      <path id="Path_39" data-name="Path 39" d="M65.454,156.929V376.2H21.6V156.929a21.927,21.927,0,0,1,43.854,0Z" transform="translate(22.394 170.28)" fill="#76789b"/>
      <path id="Path_40" data-name="Path 40" d="M100.524,156.929V376.2H56.67V156.929a21.927,21.927,0,0,1,43.854,0Z" transform="translate(69.349 170.28)" fill="#76789b"/>
      <path id="Path_41" data-name="Path 41" d="M41.241,62.537a4.885,4.885,0,0,0-.468.515c-4.514,4.841-7.578,13.893-7.578,24.161V237.158a29.435,29.435,0,0,1-9.215-2.69,24.309,24.309,0,0,1-6.946-5.5A30.079,30.079,0,0,1,10.6,218.447a35.587,35.587,0,0,1-1.31-6.83c-.187-2.011.047-4.046.047-6.081V92.638c0-.351,0-.725.023-1.076-.023-.07-.023-.094,0-.117A34.878,34.878,0,0,1,11.7,79.517a2.424,2.424,0,0,1,.094-.234,27.468,27.468,0,0,1,3.087-5.169l.047-.047A29.752,29.752,0,0,1,38.715,62.42,22.306,22.306,0,0,1,41.241,62.537Z" transform="translate(5.818 73.118)" fill="#e8beac"/>
      <path id="Path_42" data-name="Path 42" d="M106.049,211.684a33.535,33.535,0,0,1-1.286,6.83,30.173,30.173,0,0,1-6.432,10.548,25.145,25.145,0,0,1-6.946,5.5,30.021,30.021,0,0,1-9.239,2.69V87.3c0-10.642-3.251-19.951-8.046-24.675a22.823,22.823,0,0,1,2.526-.117,29.684,29.684,0,0,1,23.786,11.648c.023,0,.047.023.07.047a28.661,28.661,0,0,1,3.064,5.169,2.181,2.181,0,0,1,.117.234A35.442,35.442,0,0,1,106,91.535v.117c0,.351.023.725.023,1.076v112.9C106.026,207.637,106.236,209.672,106.049,211.684Z" transform="translate(92.685 73.239)" fill="#e8beac"/>
      <path id="Path_43" data-name="Path 43" d="M90.638,255.633H2.79c0-16.91,19.67-30.593,43.924-30.593h.07C71.015,225.063,90.638,238.746,90.638,255.633Z" transform="translate(-2.79 290.846)" fill="#6e604b"/>
      <path id="Path_44" data-name="Path 44" d="M144.488,255.633H56.64q0-.877.07-1.754c1.31-16.091,20.442-28.838,43.854-28.838C124.818,225.04,144.488,238.723,144.488,255.633Z" transform="translate(69.309 290.846)" fill="#6e604b"/>
      <path id="Path_45" data-name="Path 45" d="M167.093,89.177V248.01a28.149,28.149,0,0,1-28.067,28.067H44.677A28.149,28.149,0,0,1,16.61,248.01V89.177a28.089,28.089,0,0,1,15.39-25A27.57,27.57,0,0,1,44.677,61.11h94.35a27.388,27.388,0,0,1,13.121,3.321c.047.023.117.047.164.07A28.08,28.08,0,0,1,167.093,89.177Z" transform="translate(15.713 71.364)" fill="#7f86c1"/>
      <path id="Path_46" data-name="Path 46" d="M139.037,194.726H44.687A28.149,28.149,0,0,1,16.62,166.66V149.937A28.149,28.149,0,0,1,44.687,121.87h94.35A28.149,28.149,0,0,1,167.1,149.937V166.66A28.149,28.149,0,0,1,139.037,194.726Z" transform="translate(15.727 152.714)" fill="#76789b"/>
      <path id="Path_47" data-name="Path 47" d="M41.827,62.42q-.561.281-1.123.631A27.982,27.982,0,0,0,26.437,87.423v28.067H9.27V92.638c0-.351,0-.725.023-1.076-.023-.07-.023-.094,0-.117a34.878,34.878,0,0,1,2.339-11.928,2.425,2.425,0,0,1,.094-.234,27.469,27.469,0,0,1,3.087-5.169l.047-.047A29.752,29.752,0,0,1,38.646,62.42Z" transform="translate(5.886 73.118)" fill="#76789b"/>
      <path id="Path_48" data-name="Path 48" d="M73.315,153.062H62.557A28.149,28.149,0,0,1,34.49,125V42.6A28.149,28.149,0,0,1,62.557,14.53H73.315A28.149,28.149,0,0,1,101.382,42.6V125A28.149,28.149,0,0,1,73.315,153.062Z" transform="translate(39.652 8.999)" fill="#e8beac"/>
      <path id="Path_49" data-name="Path 49" d="M101.088,97.03H42.71A11.21,11.21,0,0,1,31.53,85.85V67.56A11.21,11.21,0,0,1,42.71,56.38h58.378a11.21,11.21,0,0,1,11.18,11.18V85.85A11.21,11.21,0,0,1,101.088,97.03Z" transform="translate(35.689 65.031)" fill="#7f86c1"/>
      <path id="Path_50" data-name="Path 50" d="M105.41,92.728v22.64h-15.9V87.3A28.08,28.08,0,0,0,74.724,62.627c-.047-.023-.117-.047-.164-.07.491-.047.959-.047,1.45-.047A29.684,29.684,0,0,1,99.8,74.158c.023,0,.047.023.07.047a28.66,28.66,0,0,1,3.064,5.169,2.176,2.176,0,0,1,.117.234,35.442,35.442,0,0,1,2.339,11.928v.117C105.386,92,105.41,92.377,105.41,92.728Z" transform="translate(93.301 73.239)" fill="#76789b"/>
      <path id="Path_51" data-name="Path 51" d="M116.4,37.752a17.872,17.872,0,0,1-17.8,17.8A17.8,17.8,0,0,1,81.9,43.88a18.5,18.5,0,0,1-4.865.631,18.692,18.692,0,0,1-9.309-2.479c-.164-.117-.351-.21-.515-.327-.047.234-.117.468-.187.7A18.654,18.654,0,1,1,40.6,20.374,18.671,18.671,0,0,1,67.728,9.709a18.665,18.665,0,0,1,7.251-2.362A17.818,17.818,0,0,1,84.732,4.47a15.512,15.512,0,0,1,2.339.164,18.027,18.027,0,0,1,15.577,15.787c.421.094.842.211,1.263.327.211.07.421.14.632.234a16.971,16.971,0,0,1,5.543,3.181,15.493,15.493,0,0,1,2.853,3.087A17.458,17.458,0,0,1,116.4,37.752Z" transform="translate(34.364 -4.47)" fill="#7f86c1"/>
      <path id="Path_52" data-name="Path 52" d="M46.842,20.717c-.234.117-.468.257-.7.374.07-.234.14-.468.187-.7C46.491,20.507,46.678,20.6,46.842,20.717Z" transform="translate(55.25 16.845)" fill="#7f86c1"/>
      <ellipse id="Ellipse_9" data-name="Ellipse 9" cx="6.479" cy="11.952" rx="6.479" ry="11.952" transform="translate(116.383 61.583)" fill="#3b3c3d"/>
      <ellipse id="Ellipse_10" data-name="Ellipse 10" cx="6.479" cy="11.952" rx="6.479" ry="11.952" transform="translate(85.439 61.583)" fill="#3b3c3d"/>
      <ellipse id="Ellipse_11" data-name="Ellipse 11" cx="5.964" cy="9.566" rx="5.964" ry="9.566" transform="translate(68.155 63.968)" fill="#e8beac"/>
      <ellipse id="Ellipse_12" data-name="Ellipse 12" cx="5.964" cy="9.566" rx="5.964" ry="9.566" transform="translate(135.07 63.968)" fill="#e8beac"/>
      <line id="Line_29" data-name="Line 29" y1="0.889" transform="translate(88.784 100.455)" fill="none"/>
      <path id="Path_53" data-name="Path 53" d="M78.85,46.509v3.906a.917.917,0,0,1-.094.421c-1.286,2.222-9.262,3.906-18.968,3.906-9.683,0-17.659-1.684-18.945-3.906a.856.856,0,0,1-.094-.421V46.509a.829.829,0,0,1,.819-.819H78.055A.809.809,0,0,1,78.85,46.509Z" transform="translate(48.034 50.719)" fill="#fff"/>
    </g>
  </g>
</svg>
